<svg width="24" height="24" viewBox="0 0 24 24" fill="none" xmlns="http://www.w3.org/2000/svg">
<path d="M3 7C3 8.06087 3.42143 9.07828 4.17157 9.82843C4.92172 10.5786 5.93913 11 7 11C8.06087 11 9.07828 10.5786 9.82843 9.82843C10.5786 9.07828 11 8.06087 11 7C11 5.93913 10.5786 4.92172 9.82843 4.17157C9.07828 3.42143 8.06087 3 7 3C5.93913 3 4.92172 3.42143 4.17157 4.17157C3.42143 4.92172 3 5.93913 3 7Z" stroke="#14AE5C" stroke-width="2" stroke-linecap="round" stroke-linejoin="round"/>
<path d="M7 3V7H11M9 17V21M17 14V21M13 13V21M21 12V21" stroke="#14AE5C" stroke-width="2" stroke-linecap="round" stroke-linejoin="round"/>
</svg>
